<svg xmlns="http://www.w3.org/2000/svg" width="640" height="640" viewBox="0 0 640 640" version="1.1"><path d="M 306.500 118.982 C 286.024 121.044, 274.535 129.312, 269.286 145.760 C 268.454 148.367, 267.486 156.125, 267.136 163 C 266.500 175.500, 266.500 175.500, 257.281 180.102 C 252.210 182.633, 247.372 185.276, 246.531 185.975 C 244.610 187.568, 244.344 201.944, 246.200 203.800 C 246.970 204.570, 250.909 205, 257.192 205 L 266.983 205 267.242 261.250 L 267.500 317.500 286.500 317.500 L 305.500 317.500 305.758 261.275 L 306.017 205.049 322.258 204.775 C 338.500 204.500, 338.500 204.500, 339 198 C 339.275 194.425, 339.354 188.023, 339.175 183.774 L 338.849 176.049 322.675 175.774 L 306.500 175.500 306.207 168.294 C 305.870 160.003, 307.965 154.563, 312.686 151.470 C 316.085 149.243, 328.497 149.210, 336.711 151.406 C 340.888 152.522, 342.130 152.549, 342.966 151.541 C 344.210 150.043, 352 127.799, 352 125.747 C 352 123.787, 348.734 122.470, 339.426 120.677 C 329.538 118.773, 315.668 118.059, 306.500 118.982 M 93.088 159.255 C 90.111 164.890, 85.788 172.875, 83.482 177 C 81.175 181.125, 74.548 193.275, 68.755 204 C 62.961 214.725, 56.873 225.975, 55.226 229 C 48.402 241.531, 21.020 292.090, 17.044 299.500 C 14.683 303.900, 11.007 310.688, 8.876 314.584 C 6.745 318.480, 5.301 321.968, 5.667 322.334 C 6.546 323.212, 182.314 323.200, 184.604 322.322 C 185.772 321.873, 183.340 320.894, 177.436 319.435 C 168.181 317.148, 77.541 294.095, 68.223 291.659 C 65.320 290.900, 62.689 290.022, 62.375 289.708 C 61.543 288.877, 99.373 219.052, 101.325 217.816 C 102.741 216.919, 104 217.749, 104 219.579 C 104 220.382, 105.118 222.810, 106.484 224.975 C 108.722 228.520, 115.502 240.994, 121.716 253 C 122.997 255.475, 124.681 257.978, 125.458 258.563 C 126.718 259.511, 134.782 260.062, 152.250 260.391 C 155.413 260.451, 158 260.354, 158 260.175 C 158 259.843, 153.296 250.981, 146.494 238.500 C 144.395 234.650, 141.256 228.800, 139.517 225.500 C 137.778 222.200, 132.450 212.255, 127.678 203.401 C 122.905 194.547, 119 186.720, 119 186.008 C 119 183.935, 100.267 148.996, 99.160 149.005 C 98.797 149.008, 96.065 153.621, 93.088 159.255 M 436 167.343 C 424.229 170.129, 415.322 175.941, 407.432 185.984 C 404.809 189.322, 402.176 191.893, 401.581 191.695 C 400.987 191.497, 399.349 186.423, 397.943 180.418 L 395.386 169.500 380.693 169.223 L 366 168.947 366 239.995 L 366 311.043 385.250 310.772 L 404.500 310.500 405 269 C 405.494 228.039, 405.531 227.432, 407.863 222.273 C 409.163 219.398, 412.156 215.268, 414.514 213.094 C 422.686 205.561, 431.276 202.776, 445.376 203.086 C 452.247 203.237, 454.589 202.950, 455.132 201.892 C 456.380 199.460, 458.373 168.973, 457.351 167.951 C 455.741 166.341, 441.898 165.946, 436 167.343 M 536.500 166.656 C 516.468 169.034, 503.908 174.837, 492.983 186.760 C 482.856 197.811, 477.799 210.525, 475.982 229.500 C 474.340 246.635, 476.833 264.314, 482.654 276.828 C 490.486 293.666, 502.779 304.553, 520.887 310.689 C 527.679 312.991, 530.118 313.277, 543.500 313.339 C 554.973 313.392, 560.028 312.988, 565 311.623 C 579.165 307.733, 590.866 300.157, 598.665 289.827 C 604.151 282.562, 606.476 277.782, 609.613 267.322 C 613.423 254.618, 614.100 232.665, 611.100 219.095 C 604.816 190.669, 585.956 172.336, 558 167.479 C 549.995 166.089, 543.403 165.836, 536.500 166.656 M 533.591 199.573 C 523.355 203.324, 517.778 212.134, 515.863 227.582 C 514.587 237.868, 515.350 254.390, 517.411 261.119 C 522.105 276.445, 529.262 282.073, 544.099 282.105 C 554.550 282.128, 561.416 279.191, 565.706 272.863 C 571.281 264.638, 572.919 257.256, 572.964 240.144 C 573.017 220.585, 570.016 210.594, 562.042 203.768 C 559.827 201.872, 556.272 199.799, 554.142 199.161 C 548.933 197.600, 538.398 197.812, 533.591 199.573 M 418.046 338.445 C 415.201 341.872, 419.124 347.666, 422.750 345.393 C 426.318 343.156, 425.035 337, 421 337 C 420.035 337, 418.705 337.650, 418.046 338.445 M 117 369.500 C 117 400, 117 400, 120.468 400 C 123.937 400, 123.937 400, 124.218 388.250 C 124.500 376.500, 124.500 376.500, 132.579 375.973 C 146.209 375.084, 154.059 369.456, 155.552 359.502 C 156.778 351.329, 153.012 344.357, 145.500 340.890 C 142.311 339.418, 139.015 339.039, 129.250 339.022 L 117 339 117 369.500 M 390.156 344.312 C 389.527 345.070, 388.717 347.165, 388.357 348.967 C 387.901 351.247, 386.682 352.845, 384.351 354.221 C 379.975 356.802, 379.781 360, 384 360 C 387 360, 387 360, 387 375.852 C 387 390.697, 387.145 391.919, 389.280 395.088 C 392.128 399.313, 395.320 400.966, 400.668 400.985 C 406.362 401.005, 408 400.203, 408 397.393 C 408 395.232, 407.574 395, 403.611 395 C 400.781 395, 398.383 394.321, 396.861 393.090 C 394.565 391.233, 394.500 390.755, 394.500 375.840 C 394.500 360.500, 394.500 360.500, 401 360 C 407.133 359.528, 407.500 359.359, 407.500 357 C 407.500 354.641, 407.133 354.472, 401 354 C 394.500 353.500, 394.500 353.500, 394 348.578 C 393.480 343.461, 392.117 341.949, 390.156 344.312 M 124.667 345.667 C 124.300 346.033, 124 351.447, 124 357.698 C 124 371.113, 123.765 370.864, 134.903 369.260 C 141.395 368.325, 142.848 367.735, 145.229 365.070 C 150.528 359.139, 148.340 349.554, 141.018 346.624 C 137.011 345.020, 125.960 344.373, 124.667 345.667 M 182.354 354.542 C 180.623 355.301, 178.308 357.064, 177.210 358.461 C 174.749 361.589, 174.004 361.656, 173.985 358.750 C 173.962 355.369, 172.548 353.786, 169.887 354.163 C 167.500 354.500, 167.500 354.500, 167.231 377.250 C 166.962 400, 166.962 400, 170.336 400 C 173.709 400, 173.709 400, 174.235 385.183 C 174.821 368.651, 175.844 365.285, 181.299 361.960 C 183.106 360.857, 186.300 360.006, 188.633 360.004 C 192.346 360, 192.820 359.721, 193.292 357.253 C 193.588 355.702, 193.313 354.184, 192.659 353.768 C 190.876 352.634, 185.845 353.012, 182.354 354.542 M 213.530 354.594 C 211.346 355.394, 208.268 357.275, 206.691 358.774 C 201.552 363.656, 200.547 366.637, 200.547 377 C 200.547 387.567, 201.534 390.345, 207.165 395.631 C 216.623 404.511, 233.523 401.821, 239.397 390.500 C 241.902 385.673, 242.726 374.411, 241.035 368.131 C 237.919 356.559, 225.227 350.312, 213.530 354.594 M 270.500 353.718 C 269.400 353.985, 267.068 355.283, 265.317 356.602 C 261.409 359.545, 261.217 359.552, 260.820 356.750 C 260.596 355.177, 259.718 354.409, 257.901 354.198 C 255.349 353.902, 255.291 354.034, 254.651 361.599 C 253.818 371.452, 253.809 392.795, 254.636 396.928 C 255.205 399.775, 255.596 400.075, 258.386 399.803 C 261.500 399.500, 261.500 399.500, 262.040 383 C 262.337 373.925, 262.937 365.739, 263.374 364.810 C 265.757 359.738, 277.329 357.886, 281.375 361.929 C 283.356 363.908, 283.522 365.269, 283.831 382.026 C 284.162 400, 284.162 400, 287.581 400 C 291 400, 291 400, 291 384.968 C 291 363.993, 293.010 360, 303.568 360 C 312.026 360, 312.406 360.880, 313 381.851 C 313.500 399.500, 313.500 399.500, 317 399.500 C 320.500 399.500, 320.500 399.500, 320.418 382 C 320.321 361.281, 319.365 357.979, 312.576 354.895 C 305.410 351.640, 298.464 352.685, 292.750 357.876 C 290 360.374, 290 360.374, 287.250 357.751 C 282.807 353.512, 277.051 352.126, 270.500 353.718 M 345.625 354.469 C 336.502 357.721, 331.474 366.825, 332.170 378.834 C 332.903 391.494, 339.609 399.592, 350.262 400.684 C 361.049 401.789, 370.052 396.446, 372.787 387.315 C 374.632 381.160, 374.285 370.224, 372.092 365.395 C 367.484 355.248, 356.342 350.649, 345.625 354.469 M 450.500 354.222 C 445.342 356.050, 442.034 359, 439.472 364.055 C 437.424 368.098, 437.005 370.353, 437.028 377.217 C 437.063 387.386, 439.522 393, 445.912 397.500 C 449.749 400.202, 450.934 400.500, 457.836 400.500 C 464.741 400.500, 465.921 400.203, 469.748 397.500 C 475.390 393.515, 478.196 387.632, 478.778 378.565 C 479.539 366.704, 474.503 357.853, 465.110 354.539 C 460.143 352.786, 454.871 352.672, 450.500 354.222 M 506.500 354.168 C 504.850 354.782, 502.263 356.151, 500.751 357.210 C 498.002 359.135, 498.002 359.135, 497.026 356.567 C 496.333 354.747, 495.315 354, 493.525 354 C 491 354, 491 354, 491 377 C 491 400, 491 400, 494.500 400 C 498 400, 498 400, 498.076 385.250 C 498.187 363.792, 500.235 359.888, 511.436 359.787 C 516.028 359.746, 517.613 360.168, 519.340 361.892 C 521.348 363.897, 521.535 365.300, 522 381.775 C 522.500 399.500, 522.500 399.500, 525.750 399.813 C 529 400.127, 529 400.127, 529 382.097 C 529 361.399, 528.190 358.269, 522.081 355.365 C 517.622 353.246, 510.455 352.695, 506.500 354.168 M 417.667 354.667 C 417.300 355.033, 417 365.383, 417 377.667 C 417 400, 417 400, 420.500 400 C 424 400, 424 400, 424 377 C 424 354, 424 354, 421.167 354 C 419.608 354, 418.033 354.300, 417.667 354.667 M 217.256 359.977 C 210.361 361.609, 207.599 366.478, 207.599 377 C 207.599 389.392, 211.535 394.500, 221.086 394.500 C 226.292 394.500, 227.306 394.155, 229.986 391.475 C 236.323 385.138, 236.476 368.900, 230.256 362.886 C 227.198 359.930, 222.191 358.810, 217.256 359.977 M 348.686 360.041 C 342.170 361.940, 339.774 366.561, 339.843 377.099 C 339.919 388.670, 343.274 393.826, 351.318 394.732 C 356.902 395.362, 361.916 393.086, 364.531 388.734 C 366.050 386.207, 366.477 383.625, 366.487 376.922 C 366.499 369.062, 366.266 368.038, 363.705 364.680 C 362.168 362.665, 359.805 360.787, 358.455 360.508 C 352.757 359.329, 351.358 359.262, 348.686 360.041 M 453.333 360.100 C 448.514 361.491, 445.264 366.042, 444.453 372.534 C 443.130 383.115, 445.627 390.646, 451.357 393.365 C 458.203 396.614, 464.732 395.005, 468.720 389.088 C 470.656 386.214, 470.999 384.407, 470.993 377.102 C 470.987 368.113, 469.701 364.550, 465.394 361.587 C 462.695 359.730, 457.032 359.032, 453.333 360.100" stroke="none" fill="#f2f5f8" fill-rule="evenodd"/><path d="M 0 320.002 L 0 640.003 320.250 639.752 L 640.500 639.500 640.752 319.750 L 641.003 0 320.502 0 L 0 0 0 320.002 M 0.494 320.500 C 0.494 496.500, 0.609 568.351, 0.750 480.169 C 0.891 391.987, 0.891 247.987, 0.750 160.169 C 0.609 72.351, 0.494 144.500, 0.494 320.500 M 306.500 118.982 C 286.024 121.044, 274.535 129.312, 269.286 145.760 C 268.454 148.367, 267.486 156.125, 267.136 163 C 266.500 175.500, 266.500 175.500, 257.281 180.102 C 252.210 182.633, 247.372 185.276, 246.531 185.975 C 244.610 187.568, 244.344 201.944, 246.200 203.800 C 246.970 204.570, 250.909 205, 257.192 205 L 266.983 205 267.242 261.250 L 267.500 317.500 286.500 317.500 L 305.500 317.500 305.758 261.275 L 306.017 205.049 322.258 204.775 C 338.500 204.500, 338.500 204.500, 339 198 C 339.275 194.425, 339.354 188.023, 339.175 183.774 L 338.849 176.049 322.675 175.774 L 306.500 175.500 306.207 168.294 C 305.870 160.003, 307.965 154.563, 312.686 151.470 C 316.085 149.243, 328.497 149.210, 336.711 151.406 C 340.888 152.522, 342.130 152.549, 342.966 151.541 C 344.210 150.043, 352 127.799, 352 125.747 C 352 123.787, 348.734 122.470, 339.426 120.677 C 329.538 118.773, 315.668 118.059, 306.500 118.982 M 93.088 159.255 C 90.111 164.890, 85.788 172.875, 83.482 177 C 81.175 181.125, 74.548 193.275, 68.755 204 C 62.961 214.725, 56.873 225.975, 55.226 229 C 48.402 241.531, 21.020 292.090, 17.044 299.500 C 14.683 303.900, 11.007 310.688, 8.876 314.584 C 6.745 318.480, 5.301 321.968, 5.667 322.334 C 6.546 323.212, 182.314 323.200, 184.604 322.322 C 185.772 321.873, 183.340 320.894, 177.436 319.435 C 168.181 317.148, 77.541 294.095, 68.223 291.659 C 65.320 290.900, 62.689 290.022, 62.375 289.708 C 61.543 288.877, 99.373 219.052, 101.325 217.816 C 102.741 216.919, 104 217.749, 104 219.579 C 104 220.382, 105.118 222.810, 106.484 224.975 C 108.722 228.520, 115.502 240.994, 121.716 253 C 122.997 255.475, 124.681 257.978, 125.458 258.563 C 126.718 259.511, 134.782 260.062, 152.250 260.391 C 155.413 260.451, 158 260.354, 158 260.175 C 158 259.843, 153.296 250.981, 146.494 238.500 C 144.395 234.650, 141.256 228.800, 139.517 225.500 C 137.778 222.200, 132.450 212.255, 127.678 203.401 C 122.905 194.547, 119 186.720, 119 186.008 C 119 183.935, 100.267 148.996, 99.160 149.005 C 98.797 149.008, 96.065 153.621, 93.088 159.255 M 436 167.343 C 424.229 170.129, 415.322 175.941, 407.432 185.984 C 404.809 189.322, 402.176 191.893, 401.581 191.695 C 400.987 191.497, 399.349 186.423, 397.943 180.418 L 395.386 169.500 380.693 169.223 L 366 168.947 366 239.995 L 366 311.043 385.250 310.772 L 404.500 310.500 405 269 C 405.494 228.039, 405.531 227.432, 407.863 222.273 C 409.163 219.398, 412.156 215.268, 414.514 213.094 C 422.686 205.561, 431.276 202.776, 445.376 203.086 C 452.247 203.237, 454.589 202.950, 455.132 201.892 C 456.380 199.460, 458.373 168.973, 457.351 167.951 C 455.741 166.341, 441.898 165.946, 436 167.343 M 536.500 166.656 C 516.468 169.034, 503.908 174.837, 492.983 186.760 C 482.856 197.811, 477.799 210.525, 475.982 229.500 C 474.340 246.635, 476.833 264.314, 482.654 276.828 C 490.486 293.666, 502.779 304.553, 520.887 310.689 C 527.679 312.991, 530.118 313.277, 543.500 313.339 C 554.973 313.392, 560.028 312.988, 565 311.623 C 579.165 307.733, 590.866 300.157, 598.665 289.827 C 604.151 282.562, 606.476 277.782, 609.613 267.322 C 613.423 254.618, 614.100 232.665, 611.100 219.095 C 604.816 190.669, 585.956 172.336, 558 167.479 C 549.995 166.089, 543.403 165.836, 536.500 166.656 M 533.591 199.573 C 523.355 203.324, 517.778 212.134, 515.863 227.582 C 514.587 237.868, 515.350 254.390, 517.411 261.119 C 522.105 276.445, 529.262 282.073, 544.099 282.105 C 554.550 282.128, 561.416 279.191, 565.706 272.863 C 571.281 264.638, 572.919 257.256, 572.964 240.144 C 573.017 220.585, 570.016 210.594, 562.042 203.768 C 559.827 201.872, 556.272 199.799, 554.142 199.161 C 548.933 197.600, 538.398 197.812, 533.591 199.573 M 418.046 338.445 C 415.201 341.872, 419.124 347.666, 422.750 345.393 C 426.318 343.156, 425.035 337, 421 337 C 420.035 337, 418.705 337.650, 418.046 338.445 M 117 369.500 C 117 400, 117 400, 120.468 400 C 123.937 400, 123.937 400, 124.218 388.250 C 124.500 376.500, 124.500 376.500, 132.579 375.973 C 146.209 375.084, 154.059 369.456, 155.552 359.502 C 156.778 351.329, 153.012 344.357, 145.500 340.890 C 142.311 339.418, 139.015 339.039, 129.250 339.022 L 117 339 117 369.500 M 390.156 344.312 C 389.527 345.070, 388.717 347.165, 388.357 348.967 C 387.901 351.247, 386.682 352.845, 384.351 354.221 C 379.975 356.802, 379.781 360, 384 360 C 387 360, 387 360, 387 375.852 C 387 390.697, 387.145 391.919, 389.280 395.088 C 392.128 399.313, 395.320 400.966, 400.668 400.985 C 406.362 401.005, 408 400.203, 408 397.393 C 408 395.232, 407.574 395, 403.611 395 C 400.781 395, 398.383 394.321, 396.861 393.090 C 394.565 391.233, 394.500 390.755, 394.500 375.840 C 394.500 360.500, 394.500 360.500, 401 360 C 407.133 359.528, 407.500 359.359, 407.500 357 C 407.500 354.641, 407.133 354.472, 401 354 C 394.500 353.500, 394.500 353.500, 394 348.578 C 393.480 343.461, 392.117 341.949, 390.156 344.312 M 124.667 345.667 C 124.300 346.033, 124 351.447, 124 357.698 C 124 371.113, 123.765 370.864, 134.903 369.260 C 141.395 368.325, 142.848 367.735, 145.229 365.070 C 150.528 359.139, 148.340 349.554, 141.018 346.624 C 137.011 345.020, 125.960 344.373, 124.667 345.667 M 182.354 354.542 C 180.623 355.301, 178.308 357.064, 177.210 358.461 C 174.749 361.589, 174.004 361.656, 173.985 358.750 C 173.962 355.369, 172.548 353.786, 169.887 354.163 C 167.500 354.500, 167.500 354.500, 167.231 377.250 C 166.962 400, 166.962 400, 170.336 400 C 173.709 400, 173.709 400, 174.235 385.183 C 174.821 368.651, 175.844 365.285, 181.299 361.960 C 183.106 360.857, 186.300 360.006, 188.633 360.004 C 192.346 360, 192.820 359.721, 193.292 357.253 C 193.588 355.702, 193.313 354.184, 192.659 353.768 C 190.876 352.634, 185.845 353.012, 182.354 354.542 M 213.530 354.594 C 211.346 355.394, 208.268 357.275, 206.691 358.774 C 201.552 363.656, 200.547 366.637, 200.547 377 C 200.547 387.567, 201.534 390.345, 207.165 395.631 C 216.623 404.511, 233.523 401.821, 239.397 390.500 C 241.902 385.673, 242.726 374.411, 241.035 368.131 C 237.919 356.559, 225.227 350.312, 213.530 354.594 M 270.500 353.718 C 269.400 353.985, 267.068 355.283, 265.317 356.602 C 261.409 359.545, 261.217 359.552, 260.820 356.750 C 260.596 355.177, 259.718 354.409, 257.901 354.198 C 255.349 353.902, 255.291 354.034, 254.651 361.599 C 253.818 371.452, 253.809 392.795, 254.636 396.928 C 255.205 399.775, 255.596 400.075, 258.386 399.803 C 261.500 399.500, 261.500 399.500, 262.040 383 C 262.337 373.925, 262.937 365.739, 263.374 364.810 C 265.757 359.738, 277.329 357.886, 281.375 361.929 C 283.356 363.908, 283.522 365.269, 283.831 382.026 C 284.162 400, 284.162 400, 287.581 400 C 291 400, 291 400, 291 384.968 C 291 363.993, 293.010 360, 303.568 360 C 312.026 360, 312.406 360.880, 313 381.851 C 313.500 399.500, 313.500 399.500, 317 399.500 C 320.500 399.500, 320.500 399.500, 320.418 382 C 320.321 361.281, 319.365 357.979, 312.576 354.895 C 305.410 351.640, 298.464 352.685, 292.750 357.876 C 290 360.374, 290 360.374, 287.250 357.751 C 282.807 353.512, 277.051 352.126, 270.500 353.718 M 345.625 354.469 C 336.502 357.721, 331.474 366.825, 332.170 378.834 C 332.903 391.494, 339.609 399.592, 350.262 400.684 C 361.049 401.789, 370.052 396.446, 372.787 387.315 C 374.632 381.160, 374.285 370.224, 372.092 365.395 C 367.484 355.248, 356.342 350.649, 345.625 354.469 M 450.500 354.222 C 445.342 356.050, 442.034 359, 439.472 364.055 C 437.424 368.098, 437.005 370.353, 437.028 377.217 C 437.063 387.386, 439.522 393, 445.912 397.500 C 449.749 400.202, 450.934 400.500, 457.836 400.500 C 464.741 400.500, 465.921 400.203, 469.748 397.500 C 475.390 393.515, 478.196 387.632, 478.778 378.565 C 479.539 366.704, 474.503 357.853, 465.110 354.539 C 460.143 352.786, 454.871 352.672, 450.500 354.222 M 506.500 354.168 C 504.850 354.782, 502.263 356.151, 500.751 357.210 C 498.002 359.135, 498.002 359.135, 497.026 356.567 C 496.333 354.747, 495.315 354, 493.525 354 C 491 354, 491 354, 491 377 C 491 400, 491 400, 494.500 400 C 498 400, 498 400, 498.076 385.250 C 498.187 363.792, 500.235 359.888, 511.436 359.787 C 516.028 359.746, 517.613 360.168, 519.340 361.892 C 521.348 363.897, 521.535 365.300, 522 381.775 C 522.500 399.500, 522.500 399.500, 525.750 399.813 C 529 400.127, 529 400.127, 529 382.097 C 529 361.399, 528.190 358.269, 522.081 355.365 C 517.622 353.246, 510.455 352.695, 506.500 354.168 M 417.667 354.667 C 417.300 355.033, 417 365.383, 417 377.667 C 417 400, 417 400, 420.500 400 C 424 400, 424 400, 424 377 C 424 354, 424 354, 421.167 354 C 419.608 354, 418.033 354.300, 417.667 354.667 M 217.256 359.977 C 210.361 361.609, 207.599 366.478, 207.599 377 C 207.599 389.392, 211.535 394.500, 221.086 394.500 C 226.292 394.500, 227.306 394.155, 229.986 391.475 C 236.323 385.138, 236.476 368.900, 230.256 362.886 C 227.198 359.930, 222.191 358.810, 217.256 359.977 M 348.686 360.041 C 342.170 361.940, 339.774 366.561, 339.843 377.099 C 339.919 388.670, 343.274 393.826, 351.318 394.732 C 356.902 395.362, 361.916 393.086, 364.531 388.734 C 366.050 386.207, 366.477 383.625, 366.487 376.922 C 366.499 369.062, 366.266 368.038, 363.705 364.680 C 362.168 362.665, 359.805 360.787, 358.455 360.508 C 352.757 359.329, 351.358 359.262, 348.686 360.041 M 453.333 360.100 C 448.514 361.491, 445.264 366.042, 444.453 372.534 C 443.130 383.115, 445.627 390.646, 451.357 393.365 C 458.203 396.614, 464.732 395.005, 468.720 389.088 C 470.656 386.214, 470.999 384.407, 470.993 377.102 C 470.987 368.113, 469.701 364.550, 465.394 361.587 C 462.695 359.730, 457.032 359.032, 453.333 360.100" stroke="none" fill="#1d3c67" fill-rule="evenodd"/></svg>