<?xml version="1.0" standalone="no"?>
<!DOCTYPE svg PUBLIC "-//W3C//DTD SVG 20010904//EN"
 "http://www.w3.org/TR/2001/REC-SVG-20010904/DTD/svg10.dtd">
<svg version="1.0" xmlns="http://www.w3.org/2000/svg"
 width="300.000000pt" height="300.000000pt" viewBox="0 0 300.000000 300.000000"
 preserveAspectRatio="xMidYMid meet">
<metadata>
Created by potrace 1.10, written by Peter Selinger 2001-2011
</metadata>
<g transform="translate(0.000000,300.000000) scale(0.100000,-0.100000)"
fill="#000000" stroke="none">
<path d="M1413 2883 c20 -2 54 -2 75 0 20 2 3 4 -38 4 -41 0 -58 -2 -37 -4z"/>
<path d="M1050 2801 c0 -5 -15 -13 -32 -16 -41 -9 -188 -85 -250 -129 -75 -54
-124 -96 -110 -96 7 0 20 9 29 20 10 11 21 20 25 20 4 0 29 15 55 34 27 18 77
48 113 66 36 18 69 39 73 46 5 8 12 12 17 9 13 -8 88 24 94 41 3 8 1 14 -4 14
-6 0 -10 -4 -10 -9z"/>
<path d="M2329 2577 c36 -39 54 -48 45 -22 -4 8 -11 15 -17 15 -6 0 -22 10
-36 22 -14 13 -10 6 8 -15z"/>
<path d="M1365 2560 c-11 -5 -32 -9 -46 -9 -40 -1 -173 -47 -253 -87 -74 -37
-164 -99 -230 -159 -40 -35 -47 -60 -8 -28 11 10 30 26 43 37 51 43 189 125
249 148 148 58 224 72 395 72 106 1 175 -4 205 -12 144 -43 210 -67 210 -75 0
-5 7 -7 15 -3 8 3 15 1 15 -4 0 -6 6 -10 13 -10 8 0 27 -11 43 -25 16 -14 33
-25 38 -25 19 0 158 -114 212 -174 81 -90 194 -271 194 -313 0 -8 4 -12 9 -8
21 13 -65 185 -146 293 -136 179 -358 323 -568 366 -16 4 -41 9 -55 13 -40 10
-313 13 -335 3z"/>
<path d="M2400 2521 c0 -11 57 -51 73 -51 5 0 1 7 -7 16 -9 8 -16 21 -16 27 0
8 -3 8 -9 -1 -6 -11 -11 -10 -25 3 -9 9 -16 12 -16 6z"/>
<path d="M222 2437 c-12 -13 -22 -29 -22 -35 0 -21 65 -203 164 -462 117 -305
150 -470 128 -650 -33 -266 -41 -353 -46 -524 -7 -213 -3 -226 60 -226 30 0
39 9 111 104 43 58 103 144 133 193 181 292 231 355 321 403 57 30 73 34 139
34 82 0 133 -14 225 -64 63 -34 96 -36 49 -3 -64 45 -177 95 -240 105 -133 22
-242 -18 -352 -130 -93 -95 -292 -358 -292 -386 0 -4 11 1 24 11 13 10 22 21
20 24 -2 4 3 9 11 13 8 3 15 12 15 21 0 8 4 15 9 15 4 0 21 19 37 43 53 79
149 197 160 197 6 0 11 -7 11 -15 0 -8 -3 -13 -5 -10 -3 3 -12 -9 -19 -26 -7
-17 -17 -28 -22 -25 -5 4 -13 1 -17 -5 -4 -8 -3 -9 4 -5 21 12 13 -12 -8 -27
-11 -8 -17 -17 -14 -20 4 -4 -5 -22 -20 -42 -15 -19 -24 -35 -21 -35 3 0 -3
-10 -15 -22 -11 -12 -20 -28 -20 -35 0 -7 -4 -13 -10 -13 -5 0 -10 -7 -10 -15
0 -8 -4 -15 -10 -15 -5 0 -10 -6 -10 -14 0 -7 -7 -19 -15 -26 -8 -7 -13 -15
-10 -19 2 -4 -4 -14 -13 -23 -9 -8 -24 -25 -32 -37 -8 -12 -27 -36 -42 -54
-16 -17 -28 -33 -28 -37 0 -3 -14 -14 -30 -23 l-30 -18 -11 28 c-13 33 -5 396
11 483 5 30 12 78 15 105 4 28 8 66 11 85 11 79 5 250 -11 321 -31 134 -65
253 -85 294 -21 44 -60 148 -91 240 -11 33 -25 69 -29 80 -35 80 -45 106 -55
153 -10 45 -9 56 3 69 16 15 78 11 96 -8 6 -5 16 -9 22 -9 16 0 134 -70 134
-79 0 -4 14 -15 30 -25 18 -10 28 -22 24 -29 -4 -7 -3 -9 1 -4 10 9 125 -101
125 -120 0 -7 4 -13 9 -13 10 0 101 -113 101 -124 0 -3 16 -26 35 -51 19 -25
42 -62 52 -83 9 -20 19 -39 22 -42 4 -3 13 -18 21 -35 8 -16 19 -33 25 -37 5
-4 6 -11 1 -15 -8 -9 -99 87 -138 147 -9 14 -29 39 -45 56 -15 17 -41 48 -58
70 -16 21 -39 47 -50 59 -11 11 -19 24 -17 29 2 5 -4 6 -13 3 -8 -4 -15 -3
-15 1 0 16 -104 113 -154 145 -36 23 -49 12 -16 -15 86 -68 284 -279 375 -398
185 -245 288 -309 476 -297 93 6 218 48 227 77 4 12 2 13 -9 4 -30 -25 -136
-47 -220 -47 -143 0 -231 53 -316 191 -158 258 -240 371 -357 488 -101 100
-192 160 -287 188 -70 21 -82 20 -107 -7z"/>
<path d="M2470 2454 c0 -2 27 -30 59 -63 33 -33 57 -62 53 -65 -3 -3 0 -6 7
-6 6 0 15 -10 20 -23 5 -13 21 -41 36 -63 15 -21 36 -59 47 -84 25 -53 49 -92
55 -87 6 7 -66 154 -90 185 -12 15 -30 42 -41 61 -10 19 -26 42 -35 51 -9 10
-24 30 -34 44 -10 15 -22 24 -28 21 -5 -4 -9 0 -9 8 0 8 -9 17 -20 20 -11 3
-20 3 -20 1z"/>
<path d="M395 2198 c7 -24 22 -65 34 -91 12 -27 21 -55 21 -63 0 -8 5 -14 10
-14 6 0 10 -11 10 -24 0 -14 4 -28 10 -31 5 -3 18 -35 29 -70 11 -35 24 -72
29 -82 6 -10 15 -38 22 -63 7 -25 16 -55 20 -66 23 -59 42 -242 36 -334 -10
-133 -13 -160 -31 -285 -9 -60 -17 -137 -19 -171 -2 -34 -6 -66 -10 -72 -3 -6
-2 -13 3 -16 14 -9 29 44 35 129 3 43 12 118 20 165 33 198 40 303 27 401 -24
177 -91 393 -191 614 -5 11 -18 41 -29 68 -25 59 -44 63 -26 5z"/>
<path d="M1350 2210 c-128 -35 -234 -95 -311 -177 -83 -88 -94 -113 -18 -42
114 107 192 154 321 189 64 17 98 21 190 17 118 -4 167 -14 252 -49 116 -49
236 -154 307 -269 22 -37 39 -56 39 -45 0 45 -116 195 -198 256 -168 124 -397
171 -582 120z"/>
<path d="M2488 1741 c-80 -26 -132 -85 -147 -168 -26 -133 57 -226 234 -263
123 -26 168 -59 157 -117 -7 -39 -54 -56 -136 -51 -72 5 -123 26 -173 71 -13
11 -24 19 -26 16 -1 -2 -21 -27 -45 -56 -23 -28 -42 -56 -42 -61 0 -18 146
-91 208 -103 82 -15 198 -7 248 19 109 56 155 183 104 288 -32 65 -93 98 -277
149 -97 27 -128 72 -84 126 16 20 27 23 84 22 55 0 76 -6 129 -35 l63 -34 42
62 42 63 -22 14 c-71 46 -122 60 -227 63 -58 2 -117 -1 -132 -5z m246 -36 c28
-8 62 -23 75 -33 l23 -19 -30 -34 c-32 -36 -29 -36 -104 2 -10 5 -27 9 -37 9
-11 0 -22 4 -26 9 -7 13 -72 4 -115 -14 -37 -17 -62 -56 -53 -83 19 -61 55
-86 169 -116 87 -23 177 -69 200 -103 30 -44 26 -159 -6 -206 -38 -55 -86 -77
-184 -84 -177 -12 -343 68 -265 128 25 19 49 25 49 11 0 -17 114 -55 173 -58
74 -5 125 16 146 60 26 55 -11 119 -75 132 -6 1 -27 9 -45 17 -31 13 -65 24
-152 45 -32 8 -80 52 -100 91 -18 35 -15 117 6 156 21 40 64 85 81 85 8 0 25
6 39 13 33 17 162 13 231 -8z"/>
<path d="M2090 1390 l0 -311 65 3 66 3 0 305 0 305 -66 3 -65 3 0 -311z m95
259 c3 -9 7 -126 9 -260 4 -246 1 -270 -33 -277 -38 -8 -41 11 -41 283 0 202
3 264 13 268 23 9 47 3 52 -14z"/>
<path d="M1649 1630 c0 -3 -1 -108 -1 -235 l0 -230 44 2 c60 2 60 2 55 11 -3
4 -7 45 -8 91 l-3 83 117 -1 117 -2 0 46 0 46 -107 -1 c-60 -1 -112 -1 -118
-1 -5 1 -9 24 -9 53 l2 51 131 -2 131 -2 0 45 0 45 -175 3 c-96 2 -175 1 -176
-2z m301 -45 c0 -12 -18 -15 -101 -15 -117 0 -127 -6 -136 -78 -5 -48 -5 -49
32 -67 23 -10 64 -18 100 -19 58 -1 97 -17 76 -31 -5 -3 -12 -2 -14 2 -3 5
-39 6 -81 3 -96 -6 -107 -17 -113 -107 -6 -77 -7 -80 -26 -65 -16 14 -20 99
-5 108 7 4 6 9 -1 13 -6 4 -11 18 -11 32 1 32 7 199 9 222 1 15 15 17 136 17
113 0 135 -2 135 -15z"/>
<path d="M1040 1081 c0 -13 87 -89 145 -126 68 -43 145 -72 238 -90 119 -23
156 -21 307 18 44 11 151 59 173 77 7 6 25 20 40 31 40 31 26 35 -20 6 -119
-75 -257 -117 -386 -117 -147 0 -313 61 -434 159 -35 28 -63 47 -63 42z"/>
<path d="M2270 853 c-56 -58 -172 -148 -225 -176 -62 -33 -150 -69 -234 -94
-79 -25 -101 -27 -266 -27 -123 -1 -196 3 -230 13 -125 34 -209 66 -277 105
-161 94 -156 91 -128 66 99 -86 262 -165 425 -206 144 -37 394 -20 546 37 161
60 331 178 420 290 47 59 31 55 -31 -8z"/>
<path d="M2600 743 c-36 -47 -199 -212 -220 -223 -11 -6 -20 -17 -20 -25 0 -9
-6 -12 -17 -8 -11 4 -14 3 -9 -5 4 -7 11 -12 15 -12 21 0 246 234 272 283 14
26 3 21 -21 -10z"/>
<path d="M2257 443 c-13 -12 -7 -23 12 -23 10 0 21 7 25 15 5 15 -24 22 -37 8z"/>
<path d="M820 415 c0 -5 110 -70 120 -70 3 -1 16 -7 30 -15 14 -8 27 -15 30
-16 55 -13 98 -29 95 -35 -3 -3 7 -6 21 -6 15 0 29 -5 33 -10 5 -8 14 -9 39
-4 11 2 -78 41 -94 41 -17 0 -69 22 -176 76 -86 44 -98 48 -98 39z"/>
</g>
</svg>
