<svg xmlns="http://www.w3.org/2000/svg" width="640" height="640" viewBox="0 0 640 640" version="1.1"><path d="M 52.812 115.760 C 51.237 115.971, 48.593 117.815, 46.429 120.211 C 42.739 124.294, 42.735 124.310, 43.276 131.468 C 43.577 135.452, 44.720 140.603, 45.849 143.067 C 46.966 145.505, 48.370 149.394, 48.967 151.708 C 49.565 154.022, 50.492 156.186, 51.027 156.517 C 51.562 156.847, 52 158.190, 52 159.500 C 52 160.810, 52.398 162.128, 52.885 162.429 C 53.371 162.729, 53.999 164.219, 54.280 165.738 C 54.561 167.257, 55.977 171.425, 57.426 175 C 58.875 178.575, 60.989 183.975, 62.123 187 C 64.421 193.129, 67.665 201.448, 68.948 204.500 C 69.410 205.600, 70.546 208.750, 71.472 211.500 C 73.301 216.933, 73.585 217.643, 77.420 226.371 C 78.839 229.600, 80 233.087, 80 234.121 C 80 235.154, 80.450 236, 81 236 C 81.550 236, 82 236.554, 82 237.231 C 82 238.295, 82.864 240.740, 87.045 251.500 C 88.008 253.981, 91.281 264.520, 93.566 272.500 C 94.510 275.800, 95.895 280.493, 96.642 282.928 C 97.389 285.364, 98 288.182, 98 289.192 C 98 290.201, 98.399 291.809, 98.887 292.764 C 100.280 295.488, 102.838 309.262, 104.647 323.769 C 106.185 336.105, 106.186 338.426, 104.654 356.769 C 103.748 367.621, 102.542 379.425, 101.973 383 C 100.406 392.863, 98.790 406.334, 96.038 432.500 C 94.613 446.045, 93.138 511.189, 94.148 516 C 95.023 520.170, 99.995 524.721, 104.626 525.590 C 109.631 526.529, 113.771 525.144, 117.877 521.159 C 122.164 516.997, 132.226 504.129, 139.250 493.825 C 141.862 489.993, 144.645 486.212, 145.434 485.423 C 146.223 484.634, 147.154 483.091, 147.502 481.994 C 147.850 480.897, 148.554 480, 149.067 480 C 149.580 480, 150 479.565, 150 479.033 C 150 478.501, 152.700 474.022, 156 469.081 C 159.300 464.139, 162 459.624, 162 459.048 C 162 458.472, 162.450 458, 163 458 C 163.550 458, 164 457.563, 164 457.029 C 164 456.496, 167.150 451.051, 171 444.930 C 174.850 438.809, 178 433.602, 178 433.358 C 178 433.115, 178.449 432.372, 178.997 431.708 C 179.545 431.044, 182.357 426.900, 185.247 422.500 C 188.136 418.100, 190.841 414.050, 191.259 413.500 C 191.676 412.950, 194.965 408.450, 198.567 403.500 C 205.605 393.828, 219.688 379.544, 223.293 378.419 C 224.507 378.040, 225.725 377.454, 226 377.115 C 227.829 374.864, 236.858 371.384, 246 369.406 C 262.106 365.921, 281.075 369.126, 302.500 378.951 C 308.011 381.478, 312 382.310, 312 380.931 C 312 380.440, 310.869 379.754, 309.487 379.407 C 308.105 379.061, 306.643 378.201, 306.237 377.498 C 305.481 376.186, 298.794 372.200, 288.920 367.176 C 283.384 364.359, 273.889 361.184, 264.736 359.090 C 258.890 357.753, 242.753 357.660, 238.571 358.940 C 236.882 359.457, 231.675 361.023, 227 362.421 C 213.811 366.364, 204.328 372.563, 191 385.952 C 177.934 399.078, 176.314 400.910, 167.200 412.858 C 163.575 417.611, 160.238 421.950, 159.785 422.500 C 159.333 423.050, 158.071 424.581, 156.981 425.903 C 155.892 427.225, 154.993 428.575, 154.984 428.903 C 154.976 429.231, 153.183 431.525, 151 434 C 148.817 436.475, 147.024 438.758, 147.016 439.074 C 147.003 439.534, 138.737 451.092, 135.269 455.500 C 134.494 456.485, 127.905 465.106, 127.307 465.917 C 125.568 468.277, 125.341 446.739, 127.003 437 C 129.084 424.804, 131.399 409.111, 132.091 402.500 C 132.495 398.650, 133.510 391.225, 134.347 386 C 135.184 380.775, 136.434 372.900, 137.125 368.500 C 137.822 364.059, 138.404 351.157, 138.432 339.500 C 138.483 318.863, 138.235 316.343, 134.291 297.500 C 133.486 293.650, 132.474 288.475, 132.044 286 C 131.614 283.525, 130.500 279.025, 129.568 276 C 128.636 272.975, 127.452 269.118, 126.937 267.429 C 126.422 265.740, 126 263.404, 126 262.238 C 126 261.072, 125.612 259.878, 125.137 259.585 C 124.663 259.291, 123.693 256.902, 122.982 254.276 C 122.271 251.649, 121.375 249.050, 120.991 248.500 C 120.607 247.950, 119.818 245.700, 119.238 243.500 C 117.763 237.906, 116.133 233.499, 112.841 226.205 C 111.278 222.743, 110 219.341, 110 218.646 C 110 217.951, 109.339 216.509, 108.532 215.441 C 107.724 214.374, 107.049 212.749, 107.032 211.831 C 107.014 210.913, 106.367 208.888, 105.593 207.331 C 104.818 205.774, 103.734 203.375, 103.183 202 C 102.631 200.625, 101.307 197.475, 100.240 195 C 99.173 192.525, 97.516 188.475, 96.558 186 C 95.600 183.525, 94.217 180.150, 93.485 178.500 C 91.181 173.305, 88 163.987, 88 162.430 C 88 159.592, 96.802 165.321, 107.311 175 C 116.806 183.745, 140 207.415, 140 208.361 C 140 208.660, 142.138 211.066, 144.750 213.708 C 147.363 216.350, 150.770 220.209, 152.323 222.285 C 153.876 224.360, 156.059 226.909, 157.175 227.948 C 158.291 228.988, 160.620 231.841, 162.352 234.289 C 165.201 238.317, 175.114 250.865, 180.195 256.875 C 181.300 258.180, 183.785 261.330, 185.718 263.875 C 194.925 275.990, 214.233 295.973, 216.750 295.991 C 217.438 295.996, 218 296.420, 218 296.933 C 218 297.446, 218.897 298.150, 219.994 298.498 C 221.091 298.846, 222.565 299.664, 223.270 300.316 C 223.975 300.967, 226.565 302.461, 229.026 303.636 C 243.376 310.485, 266.575 313.815, 280 310.954 C 282.475 310.426, 287.200 309.489, 290.500 308.871 C 293.800 308.254, 296.950 307.407, 297.500 306.990 C 298.050 306.572, 299.962 305.918, 301.750 305.536 C 303.538 305.154, 305 304.447, 305 303.966 C 305 303.484, 306.575 302.795, 308.500 302.434 C 310.425 302.073, 312 301.377, 312 300.889 C 312 299.725, 308.446 299.748, 306.236 300.925 C 304.039 302.096, 287.112 303.998, 278.808 304.007 C 271.791 304.014, 257.592 302.244, 254.500 300.976 C 253.400 300.525, 251.176 299.865, 249.559 299.511 C 240.518 297.529, 226.454 287.877, 219.104 278.612 C 214.031 272.215, 205.850 259.974, 202.656 254 C 201.627 252.075, 199.709 249.068, 198.393 247.317 C 197.077 245.566, 196 243.790, 196 243.370 C 196 242.951, 194.944 241.008, 193.653 239.054 C 192.363 237.099, 188.771 231.450, 185.671 226.500 C 182.572 221.550, 179.690 217.039, 179.268 216.476 C 175.845 211.914, 171.999 206.023, 171.995 205.337 C 171.993 204.876, 170.643 203.062, 168.995 201.304 C 167.348 199.547, 166 197.827, 166 197.484 C 166 196.966, 158.706 187.674, 156.986 186 C 156.704 185.725, 154.479 183.025, 152.043 180 C 149.607 176.975, 146.238 173.116, 144.557 171.424 C 142.876 169.732, 138.881 165.569, 135.679 162.174 C 132.478 158.778, 129.765 156, 129.651 156 C 129.537 156, 125.856 152.626, 121.472 148.502 C 117.087 144.378, 113.231 141.003, 112.903 141.002 C 112.575 141.001, 111.305 140.132, 110.082 139.071 C 108.177 137.419, 102.052 133.369, 92 127.115 C 80.330 119.854, 61.961 114.532, 52.812 115.760 M 312.050 165.744 C 307.402 165.933, 303.121 166.484, 302.536 166.970 C 301.951 167.455, 298.779 168.108, 295.486 168.420 C 289.016 169.033, 268.447 175.782, 264.145 178.704 C 262.690 179.692, 260.412 180.725, 259.082 181 C 257.753 181.275, 256.469 182.088, 256.230 182.806 C 255.907 183.780, 256.776 183.685, 259.648 182.432 C 261.767 181.508, 264.625 180.522, 266 180.242 C 267.375 179.961, 268.955 179.376, 269.512 178.941 C 270.708 178.007, 279.208 174.962, 287.135 172.629 C 290.234 171.717, 296.984 170.552, 302.135 170.040 C 307.286 169.529, 314.311 168.796, 317.746 168.413 C 321.276 168.019, 327.148 168.205, 331.246 168.841 C 335.236 169.460, 341.445 170.154, 345.044 170.384 C 348.643 170.613, 353.311 171.521, 355.416 172.401 C 357.522 173.280, 360.674 174, 362.422 174 C 364.170 174, 366.028 174.396, 366.550 174.879 C 367.073 175.363, 369.300 176.294, 371.500 176.949 C 373.700 177.604, 376.400 178.513, 377.500 178.970 C 384.730 181.973, 388.928 184.075, 389.480 184.968 C 389.831 185.536, 390.810 186, 391.655 186 C 392.500 186, 394.386 186.848, 395.846 187.885 C 401.300 191.758, 407.898 194.975, 408.474 194.042 C 408.799 193.516, 407.701 192.379, 406.033 191.517 C 404.365 190.654, 403 189.601, 403 189.175 C 403 188.750, 401.425 187.832, 399.500 187.136 C 397.575 186.440, 396 185.502, 396 185.053 C 396 184.603, 393.413 183.006, 390.250 181.504 C 387.087 180.002, 382.700 177.866, 380.500 176.758 C 374.563 173.767, 359.278 169.105, 353 168.371 C 349.975 168.017, 347.050 167.381, 346.500 166.959 C 345.290 166.028, 323.750 165.268, 312.050 165.744 M 251 185 C 251 186.253, 252.061 186.253, 254 185 C 255.213 184.216, 255.069 184.028, 253.250 184.015 C 252.012 184.007, 251 184.450, 251 185 M 246.441 187.529 C 244.561 189.010, 244.577 189.050, 246.922 188.779 C 248.254 188.626, 249.529 187.938, 249.755 187.250 C 250.315 185.549, 248.792 185.677, 246.441 187.529 M 242.333 190.667 C 242.700 191.033, 243.300 191.033, 243.667 190.667 C 244.033 190.300, 243.733 190, 243 190 C 242.267 190, 241.967 190.300, 242.333 190.667 M 410 195.776 C 410 196.934, 413.867 201, 414.968 201 C 415.457 201, 416.586 201.729, 417.476 202.619 C 418.367 203.510, 419.354 203.980, 419.669 203.664 C 420.386 202.947, 415.254 197.742, 412.241 196.129 C 411.009 195.469, 410 195.311, 410 195.776 M 413 198.500 C 413 198.775, 413.225 199, 413.500 199 C 413.775 199, 414 198.775, 414 198.500 C 414 198.225, 413.775 198, 413.500 198 C 413.225 198, 413 198.225, 413 198.500 M 424.007 209.006 C 425.280 210.110, 426.585 210.748, 426.909 210.425 C 427.571 209.762, 424.140 207, 422.656 207 C 422.127 207, 422.735 207.903, 424.007 209.006 M 428.500 213 C 428.840 213.550, 429.343 214, 429.618 214 C 429.893 214, 429.840 213.550, 429.500 213 C 429.160 212.450, 428.657 212, 428.382 212 C 428.107 212, 428.160 212.450, 428.500 213 M 431 215.500 C 431 215.775, 431.225 216, 431.500 216 C 431.775 216, 432 215.775, 432 215.500 C 432 215.225, 431.775 215, 431.500 215 C 431.225 215, 431 215.225, 431 215.500 M 434 219 C 434 219.550, 434.450 220, 435 220 C 435.550 220, 436 219.550, 436 219 C 436 218.450, 435.550 218, 435 218 C 434.450 218, 434 218.450, 434 219 M 540.500 265.578 C 531.113 267.855, 525.854 269.610, 521.666 271.862 C 516.745 274.509, 506.908 283.193, 505.650 286 C 505.280 286.825, 504.088 288.850, 503 290.500 C 500.370 294.489, 500.298 294.678, 499.066 300.799 C 497.546 308.353, 497.762 322.734, 499.469 327.631 C 502.849 337.333, 508.988 345.215, 515.460 348.164 C 516.857 348.800, 518 349.635, 518 350.018 C 518 351.403, 540.765 359.492, 547.750 360.588 C 550.087 360.955, 552 361.606, 552 362.034 C 552 362.462, 554.345 363.135, 557.210 363.529 C 560.076 363.923, 563.113 364.569, 563.960 364.965 C 564.807 365.361, 567.750 366.737, 570.500 368.024 C 573.250 369.311, 576.962 371.720, 578.750 373.378 C 581.533 375.960, 581.990 377.046, 581.927 380.946 C 581.887 383.451, 581.076 386.826, 580.125 388.447 C 575.607 396.148, 559.399 398.607, 542 394.230 C 536.962 392.962, 530 389.840, 530 388.848 C 530 388.382, 529.311 388, 528.469 388 C 527.626 388, 523.919 385.975, 520.229 383.500 C 514.069 379.368, 510.007 377.879, 509.995 379.750 C 509.993 380.163, 508.755 381.862, 507.245 383.528 C 505.735 385.193, 502.037 389.468, 499.026 393.028 C 496.016 396.587, 493.157 399.780, 492.673 400.123 C 488.812 402.857, 509.908 417.255, 525.573 422.577 C 533.488 425.266, 544.703 427.138, 556.274 427.700 C 581.955 428.947, 604.192 418.009, 612.184 400.199 C 613.344 397.614, 614.789 394.419, 615.396 393.099 C 616.999 389.611, 616.874 364.791, 615.250 364.250 C 614.563 364.021, 614 362.962, 614 361.897 C 614 359.143, 609.903 353.011, 604.837 348.182 C 599.218 342.824, 581.904 334.046, 574 332.547 C 572.075 332.182, 569.600 331.502, 568.500 331.036 C 567.400 330.569, 563.575 329.440, 560 328.527 C 551.182 326.275, 542.084 323.163, 539.009 321.346 C 535.712 319.399, 532 313.696, 532 310.579 C 532 304.365, 536.265 299.136, 542.973 297.126 C 545.040 296.507, 550.100 296, 554.217 296 C 564.081 296, 567.036 296.917, 582.702 304.840 C 588.313 307.678, 593.352 310, 593.899 310 C 594.446 310, 596.589 307.413, 598.662 304.250 C 600.735 301.087, 602.677 298.275, 602.979 298 C 603.280 297.725, 605.250 294.961, 607.356 291.857 C 611.769 285.353, 611.533 283.964, 605.310 279.814 C 599.248 275.772, 591.893 272, 590.074 272 C 589.153 272, 587.972 271.579, 587.450 271.065 C 586.928 270.550, 583.125 269.171, 579 267.999 C 573.379 266.402, 567.867 265.771, 557 265.481 C 549.025 265.268, 541.600 265.312, 540.500 265.578 M 446.894 278.064 C 446.360 278.395, 446.091 305.393, 446.243 343.564 L 446.500 408.500 459.955 408.500 C 473.410 408.500, 473.410 408.500, 474.105 406 C 475.091 402.456, 475.141 280.770, 474.157 279.220 C 473.579 278.310, 469.659 277.877, 460.574 277.720 C 453.550 277.599, 447.394 277.754, 446.894 278.064 M 352.250 292.030 C 350 292.936, 350 292.936, 350 341.433 C 350 397.309, 348.845 392, 361 392 C 372.465 392, 372 392.817, 372 372.665 C 372 360.570, 372.359 355.041, 373.200 354.200 C 374.057 353.343, 380.370 353, 395.266 353 C 407.737 353, 416.910 352.584, 418.066 351.965 C 419.741 351.068, 420 349.811, 420 342.572 C 420 335.873, 419.686 334.093, 418.418 333.607 C 417.548 333.273, 407.460 333, 396 333 C 384.540 333, 374.452 332.727, 373.582 332.393 C 372.315 331.907, 372 330.131, 372 323.475 C 372 318.904, 372.273 314.452, 372.607 313.582 C 373.138 312.197, 376.361 312, 398.452 312 C 428.273 312, 427.009 312.468, 426.985 301.421 C 426.976 297.615, 426.543 293.825, 426.022 293 C 425.212 291.719, 419.925 291.473, 389.787 291.312 C 370.379 291.209, 353.488 291.532, 352.250 292.030 M 313.333 383.667 C 313.700 384.033, 314.300 384.033, 314.667 383.667 C 315.033 383.300, 314.733 383, 314 383 C 313.267 383, 312.967 383.300, 313.333 383.667 M 253 434.427 C 253 434.661, 254.346 435.525, 255.992 436.346 C 258.848 437.771, 258.937 437.752, 257.957 435.919 C 257.097 434.312, 253 433.078, 253 434.427 M 260 438.393 C 260 439.277, 260.563 439.993, 261.250 439.985 C 262.871 439.965, 265.890 438.036, 264.332 438.015 C 263.689 438.007, 262.452 437.727, 261.582 437.393 C 260.544 436.995, 260 437.338, 260 438.393 M 264.020 440.750 C 264.044 441.626, 271.735 445.192, 277.500 447 C 279.700 447.690, 282.625 448.822, 284 449.514 C 285.375 450.207, 288.525 451.100, 291 451.500 C 293.475 451.899, 295.991 452.621, 296.591 453.104 C 297.853 454.118, 321.225 457, 328.193 457 C 335.234 457, 355.738 454.187, 362 452.362 C 373.784 448.928, 380 446.695, 380 445.896 C 380 445.438, 379.394 445.295, 378.653 445.580 C 377.913 445.864, 376.225 446.221, 374.903 446.373 C 373.582 446.525, 371.150 447.227, 369.500 447.931 C 367.850 448.636, 364.025 449.598, 361 450.068 C 357.975 450.539, 352.350 451.438, 348.500 452.067 C 340.224 453.418, 304.132 452.801, 303.145 451.292 C 302.790 450.750, 300.090 450.027, 297.144 449.687 C 294.198 449.347, 291.273 448.665, 290.644 448.171 C 290.015 447.677, 287.568 446.978, 285.206 446.618 C 282.845 446.257, 280.145 445.577, 279.206 445.106 C 270.464 440.721, 269.086 440.228, 268.635 441.331 C 268.293 442.169, 268.136 442.146, 268.079 441.250 C 267.996 439.940, 263.985 439.446, 264.020 440.750 M 388.813 441.683 C 389.534 441.972, 390.397 441.936, 390.729 441.604 C 391.061 441.272, 390.471 441.036, 389.417 441.079 C 388.252 441.127, 388.015 441.364, 388.813 441.683 M 384 443.500 C 384 443.775, 384.225 444, 384.500 444 C 384.775 444, 385 443.775, 385 443.500 C 385 443.225, 384.775 443, 384.500 443 C 384.225 443, 384 443.225, 384 443.500" stroke="none" fill="#17b5d6" fill-rule="evenodd"/></svg>