<svg xmlns="http://www.w3.org/2000/svg" width="640" height="640" viewBox="0 0 640 640" version="1.1"><path d="M 173.579 175.250 C 172.404 177.053, 172.076 182.448, 171.925 202.418 C 171.752 225.495, 171.872 227.433, 173.560 228.668 C 174.911 229.656, 179.842 230, 192.634 230 C 209.329 230, 209.937 230.072, 211.443 232.223 C 212.823 234.192, 213 244.206, 213 320.223 C 213 404.667, 212.969 406.031, 211 408 C 209.153 409.847, 207.667 410, 191.622 410 C 177.883 410, 174 410.295, 173.074 411.411 C 171.519 413.284, 171.988 463.393, 173.575 464.977 C 174.308 465.709, 188.931 466.055, 219.575 466.065 C 244.284 466.073, 265.047 466.062, 265.715 466.040 C 268.855 465.937, 269.112 461.669, 269.306 406.567 C 269.491 353.683, 269.585 351.116, 271.405 349.105 C 273.240 347.077, 274.183 347, 297.190 347 C 317.454 347, 321.442 346.756, 323.527 345.391 C 324.878 344.505, 325.764 343.428, 325.497 342.995 C 325.230 342.563, 324.947 331.560, 324.867 318.544 C 324.739 297.513, 324.525 294.636, 322.950 292.690 C 321.218 290.551, 320.620 290.498, 297.045 290.421 C 275.703 290.351, 272.716 290.145, 271.207 288.637 C 269.702 287.133, 269.469 283.915, 269.235 261.445 C 269.013 240.079, 269.219 235.477, 270.511 232.979 C 272.051 230, 272.051 230, 305.990 230 C 339.183 230, 339.954 229.955, 341.027 227.950 C 342.306 225.559, 341.998 176.269, 340.691 174.250 C 340.055 173.267, 322.300 173, 257.464 173 C 175.046 173, 175.046 173, 173.579 175.250 M 373.245 174.541 C 371 176.113, 371 176.113, 370.985 230.307 C 370.974 271.878, 370.677 285.082, 369.710 287 C 368.658 289.088, 367.548 289.584, 362.975 290.011 C 359.964 290.291, 356.950 290.873, 356.277 291.303 C 353.812 292.878, 353.121 299.985, 353.309 321.831 C 353.525 347.136, 353.481 347, 361.580 347 C 364.224 347, 366.653 347.708, 368.139 348.912 C 370.500 350.823, 370.500 350.823, 370.500 378.758 C 370.500 400.965, 370.219 407.032, 369.128 408.346 C 367.901 409.824, 364.208 410, 334.413 410 C 301.694 410, 301.050 410.039, 299.960 412.075 C 298.797 414.249, 298.925 464.263, 300.097 465.432 C 300.425 465.759, 336.875 466.044, 381.097 466.065 C 457.463 466.101, 461.560 466.013, 462.696 464.302 C 464.449 461.659, 464.733 413.588, 463.007 411.509 C 461.993 410.287, 458.880 409.997, 446.628 409.985 C 438.307 409.976, 430.825 409.543, 430 409.021 C 428.685 408.190, 428.500 397.209, 428.500 320.086 C 428.500 255.691, 428.805 231.795, 429.637 230.963 C 430.393 230.207, 435.779 229.854, 445.701 229.909 C 457.065 229.972, 461.088 229.656, 462.554 228.584 C 464.386 227.245, 464.464 225.903, 464.143 201.338 C 463.945 186.233, 463.392 174.996, 462.810 174.287 C 462.061 173.372, 451.215 173.061, 418.653 173.021 C 380.965 172.976, 375.205 173.168, 373.245 174.541" stroke="none" fill="#0a0a0a" fill-rule="evenodd"/></svg>