<svg xmlns="http://www.w3.org/2000/svg" width="640" height="640" viewBox="0 0 640 640" version="1.1"><path d="M 423.669 3.473 C 422.859 4.284, 421.247 6.483, 420.087 8.360 C 418.927 10.237, 417.093 12.004, 416.013 12.286 C 414.932 12.569, 413.539 14.083, 412.917 15.650 C 412.295 17.218, 411.391 19.175, 410.908 20 C 410.425 20.825, 409.414 22.850, 408.661 24.500 C 407.408 27.245, 392.250 49.170, 376.167 71.500 C 364.059 88.310, 362.882 90.147, 363.191 91.732 C 363.621 93.935, 389.997 112.894, 392.715 112.952 C 393.939 112.979, 395.406 112.109, 395.995 111.009 C 398.376 106.560, 415.109 84.172, 416.433 83.664 C 417.654 83.195, 425.444 72.606, 436.448 56.453 C 438.070 54.073, 440.320 51.613, 441.448 50.987 C 442.577 50.360, 444.427 48.419, 445.560 46.674 C 446.693 44.928, 449.996 40.258, 452.899 36.296 C 457.448 30.089, 458.086 28.667, 457.506 26.028 C 457.071 24.049, 455.802 22.432, 453.917 21.457 C 452.313 20.627, 451 19.307, 451 18.522 C 451 17.055, 442.994 11, 441.054 11 C 440.457 11, 437.186 8.975, 433.784 6.500 C 427.053 1.602, 425.889 1.254, 423.669 3.473 M 113.500 53.023 C 102.204 60.493, 91.067 69.213, 90.486 71.043 C 89.696 73.533, 102.549 90.477, 112.073 99.500 C 115.890 103.116, 130.638 123.425, 132.043 127 C 133.950 131.851, 154.939 159, 156.782 159 C 157.199 159, 160.047 157.088, 163.113 154.750 C 166.178 152.413, 172.807 147.366, 177.843 143.535 C 182.879 139.704, 187 136.007, 187 135.320 C 187 134.633, 186.169 133.626, 185.154 133.082 C 184.138 132.539, 182.487 129.936, 181.483 127.297 C 180.479 124.659, 176.335 118.225, 172.274 113 C 168.212 107.775, 162.327 100.125, 159.195 96 C 156.063 91.875, 149.901 83.937, 145.500 78.361 C 141.100 72.785, 135.025 64.928, 132 60.902 C 125.267 51.940, 122.485 48.992, 120.795 49.027 C 120.083 49.042, 116.800 50.840, 113.500 53.023 M 472.847 69.090 C 447.845 104.542, 444.849 108.613, 441.646 111.500 C 437.461 115.270, 433.519 121.245, 431.582 126.754 C 430.759 129.093, 428.492 133.095, 426.543 135.647 C 424.594 138.199, 423 141.063, 423 142.011 C 423 142.959, 424.688 144.904, 426.750 146.334 C 428.813 147.764, 432.750 150.517, 435.500 152.452 C 438.250 154.386, 440.890 155.976, 441.366 155.985 C 441.842 155.993, 444.317 157.504, 446.866 159.342 C 449.415 161.180, 452.330 162.982, 453.344 163.347 C 455.532 164.133, 458.583 161.132, 464.478 152.395 C 468.290 146.745, 471.141 142.803, 477.166 134.852 C 478.687 132.845, 480.781 128.966, 481.820 126.232 C 482.859 123.497, 489.254 113.439, 496.032 103.880 C 502.810 94.321, 510.075 84.064, 512.178 81.087 C 514.280 78.110, 516 75.098, 516 74.394 C 516 71.836, 489.944 53, 486.405 53 C 484.685 53, 481.674 56.573, 472.847 69.090 M 289 84.927 C 270.975 88.248, 261.180 92.114, 259.073 96.739 C 257.907 99.298, 258.048 99.677, 261.119 102.240 C 262.933 103.755, 270.076 108.802, 276.993 113.457 C 285.186 118.971, 290.756 123.505, 292.976 126.467 C 296.647 131.367, 305.182 137.383, 314 141.287 C 318.736 143.383, 326.977 148.684, 347.070 162.559 C 351.019 165.286, 381.308 185.837, 399.230 197.951 C 408.139 203.973, 408.331 204.575, 405.283 217 C 404.406 220.575, 403.143 226.425, 402.477 230 C 401.318 236.214, 399.617 242.871, 386.119 294 C 382.852 306.375, 379.220 320.775, 378.048 326 C 376.876 331.225, 374.975 339.325, 373.823 344 C 370.610 357.040, 370.452 359.126, 372.562 360.669 C 375.091 362.518, 410.286 362.591, 411.747 360.750 C 412.292 360.063, 413.281 357.181, 413.946 354.347 C 414.733 350.987, 415.754 349.036, 416.880 348.742 C 418.138 348.413, 419.101 346.014, 420.431 339.895 C 422.162 331.930, 425.567 318.871, 428.486 309 C 438.332 275.717, 440.005 270.612, 441.964 267.898 C 443.754 265.417, 454 231.653, 454 228.236 C 454 226.343, 460.678 202.913, 463.680 194.272 C 464.488 191.946, 464.886 189.216, 464.565 188.205 C 463.959 186.296, 446.387 173.811, 442 172.172 C 440.625 171.659, 434.462 167.810, 428.304 163.619 C 422.146 159.429, 416.424 156, 415.588 156 C 414.752 156, 408.090 151.910, 400.784 146.910 C 393.478 141.911, 384.688 136.020, 381.250 133.820 C 377.813 131.621, 375 129.468, 375 129.036 C 375 127.279, 368.050 120.984, 360.992 116.349 C 356.863 113.637, 352.138 110.477, 350.492 109.326 C 334.591 98.208, 315.965 86.654, 311.301 85.014 C 304.498 82.624, 301.562 82.612, 289 84.927 M 49.500 95.254 C 47.300 97.007, 41.337 101.754, 36.250 105.804 C 31.162 109.853, 27 113.770, 27 114.507 C 27 115.244, 28.096 117.149, 29.435 118.740 C 30.774 120.332, 32.647 123.629, 33.597 126.067 C 34.547 128.505, 39.943 136.416, 45.589 143.647 C 51.235 150.878, 56.448 157.745, 57.175 158.908 C 57.901 160.071, 59.233 161.256, 60.134 161.543 C 61.036 161.829, 64.412 165.469, 67.637 169.632 C 89.328 197.633, 92.216 201, 94.539 201 C 95.828 201, 97.166 200.540, 97.514 199.978 C 98.393 198.555, 108.721 191, 109.786 191 C 111.388 191, 125 179.874, 125 178.565 C 125 177.856, 123.650 175.576, 122 173.500 C 120.350 171.424, 119 169.420, 119 169.048 C 119 168.676, 115.583 164.830, 111.406 160.501 C 101.250 149.976, 87.352 131.974, 85.221 126.585 C 83.026 121.031, 64.532 97.002, 60.264 94.157 C 55.966 91.292, 54.253 91.467, 49.500 95.254 M 242.049 115.288 C 236.600 119.100, 230.143 125.459, 229.199 127.940 C 228.447 129.916, 212.712 142, 210.891 142 C 210.287 142, 205.452 145.283, 200.146 149.296 C 194.841 153.309, 188.274 157.879, 185.553 159.453 C 182.832 161.027, 177.657 164.521, 174.053 167.217 C 122.846 205.519, 112.466 213.076, 107.684 215.537 C 101.240 218.852, 97.231 223.180, 96.545 227.561 C 96.207 229.727, 95.045 236.112, 93.965 241.748 C 91.814 252.964, 91.376 268.912, 93.084 273.810 C 94.519 277.928, 97.497 278.806, 100.870 276.107 C 102.317 274.950, 105.975 272.675, 109 271.053 C 112.025 269.430, 120.575 263.577, 128 258.045 C 140.234 248.931, 147.976 243.329, 159.500 235.254 C 161.700 233.712, 164.103 231.112, 164.840 229.475 C 166.221 226.411, 180.623 214.902, 186.989 211.776 C 190.287 210.156, 200.171 203.291, 206.462 198.250 C 208.006 197.012, 209.725 196, 210.281 196 C 211.673 196, 219.605 190.616, 231.500 181.596 C 243.810 172.263, 246.676 170.765, 249.453 172.217 C 252.085 173.593, 288.650 198.677, 299.330 206.433 C 303.824 209.697, 309.687 213.201, 312.361 214.221 C 320.294 217.248, 332.364 226.084, 333.426 229.641 C 334.304 232.580, 374.150 260.326, 376.728 259.794 C 378.469 259.435, 386.369 240.303, 389.031 230 C 391.873 219.003, 391.678 216.605, 387.750 214.242 C 385.962 213.167, 381.734 210.085, 378.354 207.394 C 374.974 204.702, 371.149 201.735, 369.854 200.800 C 364.640 197.034, 355.549 190.321, 336.500 176.172 C 325.500 168.001, 315.274 161.014, 313.776 160.645 C 310.523 159.845, 309.392 159.075, 287.250 142.591 C 277.762 135.528, 270 129.356, 270 128.875 C 270 128.394, 269.156 127.156, 268.125 126.125 C 267.094 125.094, 266.081 123.803, 265.875 123.257 C 265.669 122.711, 262.398 119.955, 258.607 117.132 C 250.545 111.130, 248.341 110.885, 242.049 115.288 M 234.917 210.639 C 224.803 217.590, 214.831 224.163, 212.757 225.244 C 210.683 226.325, 208.740 228.175, 208.440 229.355 C 207.855 231.659, 195.719 240.687, 187.500 244.933 C 184.750 246.353, 179.800 249.342, 176.500 251.575 C 167.020 257.988, 152.254 268.089, 143 274.491 C 133.780 280.869, 112.623 294.819, 109.459 296.607 C 106.124 298.492, 106.552 302.829, 110.583 308 C 112.102 309.947, 116.992 326.064, 118.018 332.500 C 118.457 335.250, 120.401 342.450, 122.338 348.500 C 124.276 354.550, 129.744 372.100, 134.490 387.500 C 139.237 402.900, 144.443 419.551, 146.060 424.502 C 147.677 429.454, 149 434.412, 149 435.520 C 149 437.475, 152.581 450.054, 158.939 470.436 C 160.644 475.901, 162.143 480.441, 162.269 480.524 C 162.396 480.608, 164.525 482.027, 167 483.678 C 172.855 487.583, 182.332 492.493, 188 494.558 C 202.202 499.731, 204.151 500.204, 208.530 499.548 C 210.963 499.183, 213.233 498.431, 213.576 497.877 C 214.589 496.239, 213.022 490, 211.598 490 C 210.768 490, 208.794 484.770, 206.219 475.750 C 203.982 467.913, 200.969 457.675, 199.524 453 C 198.079 448.325, 196.435 442.025, 195.872 439 C 194.244 430.255, 188.792 411.648, 187.360 409.950 C 185.512 407.760, 183.769 402.607, 176.041 376.500 C 163.093 332.757, 160.107 320.650, 161.655 318.162 C 162.880 316.192, 176.478 306.212, 183.306 302.273 C 185.949 300.748, 192.924 296.093, 198.806 291.929 C 204.688 287.765, 210.186 284.105, 211.025 283.797 C 212.479 283.262, 221.068 277.244, 233 268.400 C 236.025 266.158, 242.325 261.571, 247 258.207 C 251.675 254.843, 257.975 250.249, 261 247.999 C 264.025 245.749, 270.438 240.992, 275.250 237.428 C 280.947 233.209, 284 230.279, 284 229.033 C 284 227.980, 284.450 226.840, 285 226.500 C 287.888 224.715, 285.314 221.456, 271.985 210.022 C 262.751 202.101, 257.174 198, 255.637 198 C 254.287 198, 245.562 203.322, 234.917 210.639 M 494.452 205.765 C 493.155 206.675, 488.291 222.559, 487.031 230 C 486.519 233.025, 484.953 239.050, 483.550 243.389 C 482.148 247.728, 481 252.026, 481 252.939 C 481 253.853, 480.622 255.028, 480.160 255.550 C 479.698 256.073, 478.309 260.100, 477.073 264.500 C 475.174 271.258, 467.880 295.790, 459.969 322.028 C 458.886 325.619, 457.992 329.444, 457.983 330.528 C 457.973 331.613, 456.598 337, 454.926 342.500 C 452.067 351.912, 447.149 368.790, 444.782 377.318 C 443.044 383.579, 441.811 383.924, 417.401 384.978 C 310.716 389.587, 284.481 391.072, 283.356 392.569 C 282.491 393.721, 282.545 395.234, 283.581 398.795 C 284.334 401.383, 285.898 406.875, 287.056 411 C 291.644 427.332, 293.062 430.885, 295.269 431.585 C 296.445 431.959, 311.377 431.975, 328.453 431.621 C 356.679 431.037, 412.388 430.157, 456.729 429.594 C 466.205 429.474, 474.223 429.111, 474.546 428.787 C 475.158 428.176, 482.913 402.248, 487.943 384 C 489.535 378.225, 492.927 366.300, 495.482 357.500 C 498.036 348.700, 500.956 337.675, 501.971 333 C 503.866 324.274, 514.207 286.870, 516.210 281.500 C 516.826 279.850, 517.938 277.781, 518.683 276.901 C 519.427 276.022, 521.633 269.622, 523.586 262.678 C 527.136 250.053, 527.136 250.053, 524.397 243.776 C 522.890 240.324, 520.443 236.150, 518.959 234.500 C 517.474 232.850, 515.989 230.041, 515.657 228.258 C 514.890 224.139, 506.970 212.059, 502.413 208.058 C 498.978 205.041, 496.502 204.328, 494.452 205.765 M 540.678 266.750 C 540.143 267.660, 534.533 285.083, 531.965 293.809 C 530.943 297.278, 530.354 300.760, 530.656 301.545 C 530.966 302.354, 537.558 304.953, 545.852 307.539 C 553.908 310.050, 561.534 312.531, 562.797 313.052 C 564.060 313.573, 565.879 314, 566.838 314 C 567.797 314, 572.613 315.301, 577.541 316.891 C 582.468 318.481, 593.786 322.091, 602.690 324.915 C 614.829 328.763, 619.029 330.515, 619.473 331.914 C 619.798 332.940, 621.063 334.017, 622.282 334.308 C 623.502 334.598, 626.482 335.570, 628.904 336.466 C 631.326 337.363, 633.857 337.885, 634.528 337.628 C 635.200 337.370, 636.073 334.986, 636.470 332.330 C 636.866 329.673, 637.823 325.983, 638.595 324.128 C 639.552 321.831, 640 316.687, 640 307.996 C 640 295.236, 640 295.236, 631.250 292.608 C 626.438 291.163, 610.125 286.148, 595 281.464 C 579.875 276.780, 567.020 272.959, 566.434 272.973 C 565.848 272.988, 560.510 271.425, 554.570 269.500 C 543.375 265.871, 541.421 265.485, 540.678 266.750 M 225 301.743 C 224.175 302.025, 220.966 303.773, 217.869 305.628 C 214.772 307.482, 211.715 309, 211.076 309 C 209.966 309, 201.864 313.878, 193.663 319.482 C 189.848 322.090, 189.830 322.133, 190.479 327.302 C 191.098 332.235, 196.012 351.492, 199.971 364.500 C 202.379 372.413, 208.767 395.761, 209.476 399.244 C 209.784 400.753, 210.558 401.878, 211.197 401.744 C 212.416 401.488, 221.951 433.442, 222.014 438 C 222.033 439.375, 223.165 444.325, 224.530 449 C 225.895 453.675, 229.283 465.563, 232.061 475.419 C 237.800 495.784, 238.229 496.809, 241.279 497.426 C 242.500 497.673, 281.300 498.362, 327.500 498.957 C 373.700 499.551, 414.680 500.265, 418.567 500.544 C 425.145 501.015, 425.883 500.858, 429.238 498.275 C 431.221 496.749, 435.002 493.925, 437.641 492 C 445.226 486.466, 456.586 474.487, 459.023 469.452 C 460.840 465.699, 461.048 464.400, 460.147 462.424 C 459.153 460.242, 458.416 459.995, 452.771 459.953 C 449.322 459.927, 442.225 459.705, 437 459.460 C 431.775 459.214, 410.850 458.548, 390.500 457.978 C 347.717 456.780, 283.882 455.074, 279.500 455.012 C 277.850 454.989, 275.928 454.606, 275.229 454.163 C 273.646 453.158, 270.404 444.436, 269.503 438.759 C 268.822 434.471, 263.721 417.727, 252.973 384.500 C 239.576 343.085, 236.999 334.731, 236.989 332.669 C 236.982 331.476, 235.593 326, 233.900 320.500 C 232.208 315, 230.417 309.129, 229.921 307.454 C 228.696 303.319, 226.806 301.126, 225 301.743 M 512.273 342.145 C 509.757 347.178, 501.993 373.402, 502.523 375.074 C 503.035 376.687, 514.043 381, 517.647 381 C 518.368 381, 522.230 382.078, 526.229 383.395 C 544.353 389.364, 565.872 396.001, 567.124 396.006 C 567.881 396.010, 576.071 398.473, 585.324 401.480 C 608.190 408.911, 606.879 408.937, 609.618 401 C 614.591 386.587, 618.100 373.892, 617.565 372.244 C 617.010 370.535, 605.295 366.432, 577 358.036 C 565.155 354.522, 552.308 350.575, 534 344.827 C 527.125 342.668, 519.689 340.652, 517.475 340.346 C 513.963 339.861, 513.301 340.090, 512.273 342.145 M 91.500 359.930 C 85.450 362.028, 75.775 365.197, 70 366.972 C 64.225 368.748, 47.931 373.980, 33.790 378.600 C 19.650 383.220, 6.953 387, 5.575 387 C 1.652 387, 0.814 389.790, 2.689 396.616 C 3.578 399.852, 5.036 403.175, 5.929 404 C 6.822 404.825, 8.600 408.875, 9.879 413 C 13.294 424.006, 13.780 425, 15.746 425 C 16.729 425, 23.376 423.042, 30.517 420.648 C 37.658 418.255, 47.550 415.053, 52.500 413.532 C 57.450 412.011, 70.950 407.701, 82.500 403.954 C 94.050 400.207, 106.525 396.383, 110.223 395.456 C 119.893 393.032, 120.003 392.754, 116.108 380.666 C 114.306 375.075, 112.389 369.600, 111.849 368.500 C 108.341 361.361, 105.169 356.475, 103.934 356.309 C 103.145 356.203, 97.550 357.832, 91.500 359.930 M 117.500 430.435 C 113.650 431.746, 108.807 433.136, 106.737 433.523 C 104.260 433.987, 102.291 435.187, 100.974 437.036 C 98.508 440.500, 99.815 440.024, 50 455.589 C 29.922 461.862, 23.537 464.131, 22.854 465.236 C 22.489 465.827, 22.845 468.379, 23.647 470.906 C 33.042 500.513, 32.826 500, 35.881 500 C 37.335 500, 42.059 498.878, 46.378 497.507 C 50.698 496.136, 56.093 494.541, 58.366 493.961 C 60.640 493.382, 73.075 489.530, 86 485.402 C 98.925 481.273, 110.850 477.504, 112.500 477.025 C 125.973 473.119, 136.301 469.556, 137.434 468.423 C 138.575 467.282, 138.319 465.596, 135.814 457.784 C 132.040 446.012, 130.250 439.482, 129.508 434.782 C 128.967 431.352, 126.796 427.965, 125.179 428.026 C 124.805 428.040, 121.350 429.124, 117.500 430.435 M 285.155 514.773 C 283.860 517.286, 281.453 621.853, 282.663 623.063 C 283.196 623.596, 292.166 624.318, 302.594 624.667 C 325.213 625.424, 324.960 625.526, 324.760 615.735 C 324.690 612.306, 325.243 588.668, 325.988 563.208 C 327.158 523.248, 327.149 516.733, 325.922 515.581 C 324.889 514.611, 319.242 514.082, 305.273 513.646 C 287.709 513.099, 285.968 513.196, 285.155 514.773 M 364.301 519.712 C 362.764 520.793, 362.167 528.385, 361.527 555 C 361.243 566.825, 360.765 586.625, 360.464 599 C 360.164 611.375, 359.703 622.900, 359.440 624.612 C 359.155 626.461, 359.476 628.133, 360.231 628.734 C 362.093 630.217, 396.616 631.430, 397.474 630.043 C 397.845 629.441, 398.843 605.066, 399.691 575.876 C 400.993 531.017, 401.020 522.594, 399.866 521.451 C 398.272 519.873, 366.295 518.310, 364.301 519.712" stroke="none" fill="#594d94" fill-rule="evenodd"/></svg>